<svg xmlns="http://www.w3.org/2000/svg" width="128" height="128" viewBox="0 0 128 128" role="img" aria-label="Global Library logo">
  <defs>
    <linearGradient id="g" x1="18" y1="14" x2="110" y2="114" gradientUnits="userSpaceOnUse">
      <stop stop-color="#8EA1FF"/>
      <stop offset=".55" stop-color="#5865F2"/>
      <stop offset="1" stop-color="#2EE59D"/>
    </linearGradient>
    <filter id="s" x="-20%" y="-20%" width="140%" height="140%">
      <feDropShadow dx="0" dy="14" stdDeviation="12" flood-color="#000" flood-opacity=".32"/>
    </filter>
  </defs>
  <rect x="12" y="12" width="104" height="104" rx="28" fill="url(#g)" filter="url(#s)"/>
  <path d="M37 39c0-4 3-7 7-7h39c5 0 8 3 8 8v48c0 3-2 5-5 5H44c-4 0-7-3-7-7V39Z" fill="#151927" opacity=".95"/>
  <path d="M47 44h33M47 56h30M47 68h23" stroke="#F5F7FF" stroke-width="5" stroke-linecap="round"/>
  <path d="M88 38v50" stroke="#2EE59D" stroke-width="6" stroke-linecap="round"/>
  <circle cx="90" cy="91" r="7" fill="#2EE59D"/>
</svg>
