<svg xmlns="http://www.w3.org/2000/svg" width="1200" height="760" viewBox="0 0 1200 760" fill="none">
  <defs>
    <linearGradient id="bg" x1="107" y1="0" x2="1097" y2="735" gradientUnits="userSpaceOnUse">
      <stop stop-color="#23283A"/>
      <stop offset=".45" stop-color="#151927"/>
      <stop offset="1" stop-color="#0B0D14"/>
    </linearGradient>
    <radialGradient id="r1" cx="0" cy="0" r="1" gradientUnits="userSpaceOnUse" gradientTransform="translate(860 150) rotate(130) scale(390 300)">
      <stop stop-color="#5865F2" stop-opacity=".75"/>
      <stop offset="1" stop-color="#5865F2" stop-opacity="0"/>
    </radialGradient>
    <radialGradient id="r2" cx="0" cy="0" r="1" gradientUnits="userSpaceOnUse" gradientTransform="translate(260 610) rotate(-18) scale(460 310)">
      <stop stop-color="#2EE59D" stop-opacity=".36"/>
      <stop offset="1" stop-color="#2EE59D" stop-opacity="0"/>
    </radialGradient>
  </defs>
  <rect width="1200" height="760" rx="54" fill="url(#bg)"/>
  <rect width="1200" height="760" rx="54" fill="url(#r1)"/>
  <rect width="1200" height="760" rx="54" fill="url(#r2)"/>
  <g opacity=".22" stroke="#fff">
    <path d="M142 380h916M600 78v604"/>
    <ellipse cx="600" cy="380" rx="415" ry="215"/>
    <ellipse cx="600" cy="380" rx="240" ry="330"/>
    <circle cx="600" cy="380" r="310"/>
  </g>
  <g transform="translate(304 176)">
    <rect x="40" y="70" width="504" height="334" rx="30" fill="#10131F" stroke="#30364C" stroke-width="3"/>
    <rect x="80" y="110" width="84" height="244" rx="14" fill="#5865F2"/>
    <rect x="188" y="110" width="84" height="244" rx="14" fill="#2EE59D"/>
    <rect x="296" y="110" width="84" height="244" rx="14" fill="#FEE75C"/>
    <rect x="404" y="110" width="84" height="244" rx="14" fill="#ED4245"/>
    <path d="M80 318h408" stroke="#EAF0FF" stroke-width="12" stroke-linecap="round" opacity=".8"/>
    <path d="M109 150h26M109 178h26M217 150h26M217 178h26M325 150h26M325 178h26M433 150h26M433 178h26" stroke="#10131F" stroke-width="10" stroke-linecap="round" opacity=".55"/>
    <rect x="0" y="0" width="172" height="62" rx="24" fill="#23283A" stroke="#3B435F"/>
    <circle cx="42" cy="31" r="12" fill="#2EE59D"/>
    <text x="70" y="39" font-size="24" font-weight="700" fill="#F6F8FF" font-family="Arial, sans-serif">Online</text>
    <rect x="430" y="370" width="184" height="72" rx="26" fill="#5865F2"/>
    <text x="470" y="416" font-size="24" font-weight="700" fill="white" font-family="Arial, sans-serif">Read PDF</text>
  </g>
</svg>
